# xmcd
#
# Track frame offsets:
# 150
# 13818
# 28715
# 41141
# 51023
# 59231
# 69011
# 79898
# 92364
# 102061
# 114748
# 124885
# 136534
# 145877
# 156351
# 166063
#
# Disc length: 2321 seconds
#
#
# Revision: 3
# Processed by: cddbd v1.5.1PL0 Copyright (c) Steve Scherf et al.
# Submitted via: FreeRIP 2.53 
#
DISCID=d3090f10
DTITLE=Willie Nelson - Everything But You
DYEAR=1999
DGENRE=Country
TTITLE0=Everything But You
TTITLE1=And, So Will You Love Me
TTITLE2=Shelter Of My Arms
TTITLE3=Let's Pretend
TTITLE4=Things To Remember
TTITLE5=I Didn't Sleep A Wink
TTITLE6=December Day
TTITLE7=Follow Me Around
TTITLE8=Ashamed
TTITLE9=I Don't Just Understand
TTITLE10=Pride Wins Again
TTITLE11=I'll Stay Around
TTITLE12=One Step Beyond
TTITLE13=I Feel Sorry For Him
TTITLE14=Falf A Man
TTITLE15=You Wouldn't Cross The Street
EXTD=
EXTT0=
EXTT1=
EXTT2=
EXTT3=
EXTT4=
EXTT5=
EXTT6=
EXTT7=
EXTT8=
EXTT9=
EXTT10=
EXTT11=
EXTT12=
EXTT13=
EXTT14=
EXTT15=
PLAYORDER=
